<svg width="103" height="116" viewBox="0 0 103 116" fill="none" xmlns="http://www.w3.org/2000/svg">
<path fill-rule="evenodd" clip-rule="evenodd" d="M49.2658 0.0356394C46.7544 0.484745 45.6935 0.905343 43.1381 2.46488C41.4673 3.4845 37.868 5.55705 14.7483 18.8118C10.3774 21.3177 6.2955 23.6928 5.6774 24.0899C4.22734 25.0212 2.30993 26.9681 1.53899 28.2917C0.101132 30.761 -0.0534743 32.3287 0.0123498 43.7833L0.0582654 51.756L0.517429 52.6369C1.30555 54.1484 2.14007 54.7633 7.62884 57.8758C19.4003 64.5512 19.8164 64.7482 21.2926 64.3432C22.1291 64.1138 22.9973 63.3788 23.4674 62.5024C23.8139 61.8563 23.8205 61.7145 23.9051 53.0373C23.9893 44.3748 23.9971 44.2095 24.3623 43.107C25.1479 40.7367 26.5982 38.5766 28.2517 37.3151C28.7277 36.9519 33.0185 34.4249 37.7867 31.6995C42.555 28.9741 50.3606 24.5084 55.1325 21.7755C59.9046 19.0426 64.0852 16.7155 64.4229 16.6043C65.2237 16.3407 66.5162 16.4719 67.0582 16.8717C67.2946 17.0459 67.6685 17.5064 67.8892 17.8951C68.2371 18.5076 68.2906 18.7983 68.2906 20.0792C68.2906 21.4417 68.2594 21.5878 67.8892 21.9565C67.5241 22.32 60.8475 26.1595 42.3907 36.6198C38.7418 38.6879 35.274 40.7608 34.6845 41.2265C32.7623 42.7447 31.4392 44.6041 30.5838 46.9893L30.0805 48.3925L29.9967 59.2037C29.9291 67.928 29.8697 70.1232 29.6889 70.5755C28.9077 72.5304 27.6618 73.3999 25.8313 73.2678C25.0531 73.2116 24.5158 73.0163 22.9811 72.2325C19.7244 70.5688 13.3668 66.9926 7.16984 63.3388C5.69506 62.4691 4.17789 61.6168 3.79836 61.4451C2.38892 60.8069 1.09347 61.1967 0.414518 62.4633C0.0585856 63.1273 0.0582654 63.1341 0.0582654 72.2573C0.0582654 80.5065 0.0860401 81.4949 0.345805 82.5079C0.91414 84.7249 2.12241 86.653 3.87189 88.1349C4.62341 88.7714 16.5414 95.9652 30.6424 104.294C34.4835 106.562 39.6537 109.629 42.1318 111.109C48.7978 115.089 49.4723 115.384 52.2359 115.53C54.1612 115.631 55.6114 115.364 57.446 114.573C58.5098 114.114 62.9331 111.562 72.4598 105.911C83.7251 99.5433 84.8489 98.7424 92.2923 93.7505C94.7206 92.3424 97.1408 90.8853 97.6706 90.5124C99.7072 89.0787 101.057 87.2363 101.958 84.6615L102.487 83.1486L102.536 73.8152C102.578 65.7022 102.551 64.3521 102.329 63.4885C102.012 62.2532 101.442 61.268 100.538 60.3914C99.8523 59.7267 97.3031 58.3132 96.0888 57.9245C95.3202 57.6785 95.3979 57.589 97.2691 56.5647C99.7828 55.1887 101.12 53.8909 102 51.9732C102.704 50.4398 102.747 49.7656 102.696 41.2246L102.648 33.1767L102.219 32.0064C101.137 29.0505 99.7223 27.6648 95.0792 25.0095C93.2373 23.9561 90.1771 22.1712 88.2786 21.0429C84.1889 18.612 83.118 18.2007 80.5705 18.0817C79.3242 18.0236 78.6173 18.0708 77.8683 18.2622C76.3587 18.6481 76.3982 18.6682 76.3982 17.5141C76.3982 15.5943 75.6562 13.6804 74.3914 12.3383C73.9497 11.8697 71.9939 10.6202 68.13 8.33849C65.0395 6.51356 61.5717 4.44213 60.4238 3.73532C59.2759 3.02851 57.7865 2.11492 57.1141 1.70521C55.2781 0.586132 53.5877 0.084172 51.4332 0.0180234C50.4619 -0.0117675 49.4866 -0.00376152 49.2658 0.0356394ZM92.7324 34.8322C91.1645 35.6443 83.6544 39.9553 65.9627 50.199C58.7902 54.3518 58.7397 54.3863 57.4555 55.9825C56.4427 57.2415 55.9788 58.142 55.4086 59.9554L54.9652 61.366V83.8693V106.373L55.3289 107.109C55.7556 107.973 56.1974 108.215 57.3408 108.213C58.4513 108.21 59.71 107.65 64.3866 105.076C68.6143 102.749 69.7748 101.816 70.5822 100.097L71.0199 99.1652L71.1069 84.5901C71.2042 68.2879 71.127 69.3533 72.3964 66.7665C73.2056 65.1176 74.5326 63.6665 76.3012 62.4968C77.6765 61.5873 84.8752 57.4607 91.1404 53.9903C95.2249 51.728 96.0037 51.1208 96.7396 49.6256L97.189 48.7129L97.1856 42.146C97.1819 34.8945 97.1651 34.7641 96.1583 34.1707C95.3478 33.6931 94.6841 33.8213 92.7324 34.8322Z" fill="white"/>
</svg>
