<svg width="389" height="116" viewBox="0 0 389 116" fill="none" xmlns="http://www.w3.org/2000/svg">
<path fill-rule="evenodd" clip-rule="evenodd" d="M49.2658 0.0356394C46.7544 0.484745 45.6935 0.905343 43.1381 2.46488C41.4673 3.4845 37.868 5.55705 14.7483 18.8118C10.3774 21.3177 6.2955 23.6928 5.6774 24.0899C4.22734 25.0212 2.30993 26.9681 1.53899 28.2917C0.101132 30.761 -0.0534743 32.3287 0.0123498 43.7833L0.0582654 51.756L0.517429 52.6369C1.30555 54.1484 2.14007 54.7633 7.62884 57.8758C19.4003 64.5512 19.8164 64.7482 21.2926 64.3432C22.1291 64.1138 22.9973 63.3788 23.4674 62.5024C23.8139 61.8563 23.8205 61.7145 23.9051 53.0373C23.9893 44.3748 23.9971 44.2095 24.3623 43.107C25.1479 40.7367 26.5982 38.5766 28.2517 37.3151C28.7277 36.9519 33.0185 34.4249 37.7867 31.6995C42.555 28.9741 50.3606 24.5084 55.1325 21.7755C59.9046 19.0426 64.0852 16.7155 64.4229 16.6043C65.2237 16.3407 66.5162 16.4719 67.0582 16.8717C67.2946 17.0459 67.6685 17.5064 67.8892 17.8951C68.2371 18.5076 68.2906 18.7983 68.2906 20.0792C68.2906 21.4417 68.2594 21.5878 67.8892 21.9565C67.5241 22.32 60.8475 26.1595 42.3907 36.6198C38.7418 38.6879 35.274 40.7608 34.6845 41.2265C32.7623 42.7447 31.4392 44.6041 30.5838 46.9893L30.0805 48.3925L29.9967 59.2037C29.9291 67.928 29.8697 70.1232 29.6889 70.5755C28.9077 72.5304 27.6619 73.3999 25.8313 73.2678C25.0531 73.2116 24.5158 73.0163 22.9811 72.2325C19.7244 70.5688 13.3668 66.9926 7.16984 63.3388C5.69506 62.4691 4.17789 61.6168 3.79836 61.4451C2.38892 60.8068 1.09347 61.1967 0.414518 62.4633C0.0585856 63.1273 0.0582654 63.1341 0.0582654 72.2573C0.0582654 80.5065 0.0860401 81.4949 0.345805 82.5079C0.91414 84.7249 2.12241 86.653 3.87189 88.1349C4.62341 88.7714 16.5414 95.9652 30.6424 104.294C34.4835 106.562 39.6537 109.629 42.1318 111.109C48.7978 115.089 49.4723 115.384 52.2359 115.53C54.1612 115.631 55.6114 115.364 57.446 114.573C58.5098 114.114 62.9331 111.562 72.4598 105.911C83.7251 99.5433 84.8489 98.7424 92.2923 93.7505C94.7206 92.3424 97.1408 90.8853 97.6706 90.5124C99.7072 89.0787 101.057 87.2363 101.958 84.6615L102.487 83.1486L102.536 73.8152C102.578 65.7022 102.551 64.3521 102.329 63.4885C102.012 62.2531 101.442 61.268 100.538 60.3914C99.8523 59.7267 97.3031 58.3132 96.0888 57.9245C95.3202 57.6785 95.3979 57.5889 97.2691 56.5647C99.7828 55.1887 101.12 53.8909 102 51.9732C102.704 50.4398 102.747 49.7656 102.696 41.2246L102.648 33.1767L102.219 32.0064C101.137 29.0505 99.7223 27.6648 95.0792 25.0095C93.2373 23.9561 90.1771 22.1712 88.2786 21.0429C84.1889 18.612 83.118 18.2007 80.5705 18.0817C79.3242 18.0236 78.6173 18.0708 77.8683 18.2622C76.3587 18.6481 76.3982 18.6682 76.3982 17.5141C76.3982 15.5943 75.6561 13.6804 74.3914 12.3383C73.9497 11.8697 71.9939 10.6202 68.13 8.33849C65.0395 6.51356 61.5717 4.44213 60.4238 3.73532C59.2759 3.02851 57.7865 2.11492 57.1141 1.70521C55.2781 0.586132 53.5877 0.084172 51.4332 0.0180234C50.4619 -0.0117675 49.4866 -0.00376152 49.2658 0.0356394ZM92.7324 34.8322C91.1645 35.6443 83.6544 39.9553 65.9627 50.199C58.7902 54.3518 58.7397 54.3863 57.4555 55.9825C56.4427 57.2415 55.9788 58.142 55.4087 59.9554L54.9652 61.366V83.8693V106.373L55.3289 107.109C55.7556 107.973 56.1974 108.215 57.3408 108.213C58.4513 108.21 59.71 107.65 64.3866 105.076C68.6142 102.749 69.7748 101.816 70.5822 100.097L71.0199 99.1652L71.1069 84.5901C71.2042 68.2879 71.127 69.3533 72.3964 66.7665C73.2056 65.1176 74.5326 63.6665 76.3012 62.4968C77.6765 61.5873 84.8752 57.4607 91.1404 53.9903C95.2249 51.728 96.0037 51.1208 96.7396 49.6256L97.189 48.7129L97.1856 42.146C97.1819 34.8945 97.1651 34.7641 96.1583 34.1707C95.3478 33.6931 94.6841 33.8213 92.7324 34.8322Z" fill="#609DC7"/>
<path d="M388.311 57.6438C388.311 61.5173 387.6 64.9422 386.177 67.9185C384.755 70.8729 382.719 73.3458 380.071 75.3373C377.423 77.3288 374.206 78.8388 370.42 79.8674C366.656 80.874 362.422 81.3774 357.716 81.3774C353.011 81.3774 348.755 80.874 344.947 79.8674C341.161 78.8388 337.933 77.3288 335.263 75.3373C332.593 73.3458 330.536 70.8729 329.092 67.9185C327.647 64.9422 326.925 61.5173 326.925 57.6438C326.925 53.7702 327.647 50.3563 329.092 47.4019C330.536 44.4256 332.593 41.9417 335.263 39.9502C337.933 37.9588 341.161 36.4597 344.947 35.453C348.755 34.4244 353.011 33.9102 357.716 33.9102C362.422 33.9102 366.656 34.4244 370.42 35.453C374.206 36.4597 377.423 37.9588 380.071 39.9502C382.719 41.9417 384.755 44.4256 386.177 47.4019C387.6 50.3563 388.311 53.7702 388.311 57.6438ZM376.001 57.6438C376.001 55.9587 375.727 54.2845 375.18 52.6213C374.655 50.9362 373.703 49.4262 372.324 48.0912C370.967 46.7563 369.107 45.673 366.744 44.8414C364.38 44.0098 361.371 43.594 357.716 43.594C355.265 43.594 353.11 43.791 351.25 44.1849C349.389 44.5569 347.781 45.0821 346.424 45.7605C345.067 46.439 343.929 47.2377 343.01 48.1569C342.091 49.0541 341.358 50.028 340.811 51.0785C340.264 52.107 339.87 53.1903 339.629 54.3283C339.41 55.4444 339.301 56.5495 339.301 57.6438C339.301 58.7599 339.41 59.8869 339.629 61.0249C339.87 62.1629 340.264 63.2571 340.811 64.3076C341.358 65.3361 342.091 66.299 343.01 67.1963C343.929 68.0936 345.067 68.8814 346.424 69.5598C347.781 70.2163 349.389 70.7416 351.25 71.1355C353.11 71.5075 355.265 71.6935 357.716 71.6935C361.371 71.6935 364.38 71.2777 366.744 70.4461C369.107 69.6145 370.967 68.5312 372.324 67.1963C373.703 65.8614 374.655 64.3623 375.18 62.6991C375.727 61.014 376.001 59.3289 376.001 57.6438Z" fill="black"/>
<path d="M318.817 67.722C318.817 69.4728 318.587 70.9937 318.128 72.2849C317.668 73.5761 317.022 74.6922 316.191 75.6332C315.381 76.5524 314.396 77.3074 313.236 77.8983C312.098 78.4672 310.829 78.9268 309.429 79.277C308.05 79.6052 306.573 79.835 304.997 79.9663C303.421 80.0976 301.791 80.1633 300.106 80.1633H267.378V35.0596H299.515C300.806 35.0596 302.097 35.1143 303.388 35.2237C304.702 35.3331 305.949 35.541 307.131 35.8474C308.312 36.1319 309.407 36.5368 310.413 37.062C311.442 37.5872 312.328 38.2766 313.072 39.1301C313.838 39.9836 314.429 41.0121 314.845 42.2158C315.283 43.4194 315.501 44.8419 315.501 46.4832C315.501 49.4157 314.779 51.7464 313.335 53.4753C311.891 55.1823 309.615 56.3202 306.507 56.8892C308.695 57.0424 310.567 57.3816 312.12 57.9069C313.696 58.4102 314.976 59.1105 315.961 60.0078C316.946 60.8831 317.668 61.9664 318.128 63.2576C318.587 64.5269 318.817 66.015 318.817 67.722ZM303.618 48.42C303.618 47.851 303.531 47.3148 303.356 46.8115C303.181 46.2863 302.863 45.8267 302.404 45.4328C301.944 45.0388 301.32 44.7215 300.533 44.4808C299.745 44.2401 298.738 44.1197 297.513 44.1197H279.556V52.589H297.513C298.738 52.589 299.745 52.4795 300.533 52.2607C301.32 52.0419 301.944 51.7464 302.404 51.3744C302.863 51.0023 303.181 50.5647 303.356 50.0613C303.531 49.5361 303.618 48.989 303.618 48.42ZM306.441 66.3105C306.441 65.2819 306.266 64.4612 305.916 63.8485C305.566 63.2138 305.019 62.7324 304.275 62.4041C303.531 62.054 302.568 61.8242 301.386 61.7147C300.204 61.6053 298.793 61.5506 297.151 61.5506H279.556V71.1032H297.151C298.793 71.1032 300.204 71.0484 301.386 70.939C302.568 70.8296 303.531 70.5998 304.275 70.2497C305.019 69.8995 305.566 69.4181 305.916 68.8053C306.266 68.1706 306.441 67.339 306.441 66.3105Z" fill="black"/>
<path d="M253.591 64.9646C253.591 67.2187 253.033 69.3415 251.916 71.3329C250.8 73.3244 249.126 75.0642 246.894 76.5524C244.662 78.0405 241.872 79.2223 238.523 80.0976C235.197 80.9511 231.301 81.3779 226.837 81.3779C222.373 81.3779 218.455 80.9511 215.085 80.0976C211.737 79.2223 208.946 78.0405 206.714 76.5524C204.482 75.0642 202.808 73.3244 201.692 71.3329C200.576 69.3415 200.018 67.2187 200.018 64.9646V35.0596H212.164V60.5986C212.164 62.1087 212.35 63.5421 212.722 64.8989C213.115 66.2339 213.838 67.4047 214.888 68.4114C215.96 69.4181 217.449 70.2168 219.353 70.8077C221.278 71.3986 223.773 71.694 226.837 71.694C229.879 71.694 232.352 71.3986 234.256 70.8077C236.16 70.2168 237.637 69.4181 238.687 68.4114C239.76 67.4047 240.482 66.2339 240.854 64.8989C241.226 63.5421 241.412 62.1087 241.412 60.5986V35.0596H253.591V64.9646Z" fill="black"/>
<path d="M189.251 57.6438C189.251 60.0948 188.955 62.3599 188.364 64.4389C187.795 66.496 186.964 68.3781 185.869 70.085C188.933 71.2449 191.691 72.1422 194.142 72.7768L189.185 81.64C187.412 80.9616 185.607 80.2503 183.769 79.5063C181.93 78.7622 180.081 77.9744 178.221 77.1428C175.682 78.5652 172.772 79.6266 169.489 80.3269C166.206 81.0272 162.595 81.3774 158.656 81.3774C153.951 81.3774 149.695 80.874 145.887 79.8674C142.101 78.8388 138.873 77.3288 136.203 75.3373C133.533 73.3458 131.476 70.8729 130.031 67.9185C128.587 64.9422 127.865 61.5173 127.865 57.6438C127.865 53.7702 128.587 50.3563 130.031 47.4019C131.476 44.4256 133.533 41.9417 136.203 39.9502C138.873 37.9588 142.101 36.4597 145.887 35.453C149.695 34.4244 153.951 33.9102 158.656 33.9102C163.361 33.9102 167.596 34.4244 171.36 35.453C175.146 36.4597 178.363 37.9588 181.011 39.9502C183.659 41.9417 185.694 44.4256 187.117 47.4019C188.539 50.3563 189.251 53.7702 189.251 57.6438ZM176.941 57.6438C176.941 55.9587 176.667 54.2845 176.12 52.6213C175.595 50.9362 174.643 49.4262 173.264 48.0912C171.907 46.7563 170.047 45.673 167.683 44.8414C165.32 44.0098 162.311 43.594 158.656 43.594C156.205 43.594 154.05 43.791 152.189 44.1849C150.329 44.5569 148.721 45.0821 147.364 45.7605C146.007 46.439 144.869 47.2377 143.95 48.1569C143.031 49.0541 142.298 50.028 141.75 51.0785C141.203 52.107 140.809 53.1903 140.569 54.3283C140.35 55.4444 140.24 56.5495 140.24 57.6438C140.24 58.7599 140.35 59.8869 140.569 61.0249C140.809 62.1629 141.203 63.2571 141.75 64.3076C142.298 65.3361 143.031 66.299 143.95 67.1963C144.869 68.0936 146.007 68.8814 147.364 69.5598C148.721 70.2163 150.329 70.7416 152.189 71.1355C154.05 71.5075 156.205 71.6935 158.656 71.6935C159.969 71.6935 161.195 71.6388 162.333 71.5294C163.471 71.42 164.554 71.2449 165.583 71.0042C164.226 70.3039 162.913 69.6036 161.643 68.9033C160.396 68.1811 159.214 67.4699 158.098 66.7696L162.956 58.7927C164.51 59.865 166.305 60.9593 168.34 62.0754C170.375 63.1915 172.52 64.2857 174.774 65.358C175.606 64.1763 176.175 62.9398 176.481 61.6486C176.787 60.3355 176.941 59.0006 176.941 57.6438Z" fill="black"/>
</svg>
